Genre:Comedy
Language:English  http://www.imdb.com/title/tt1343110/
Source:DVD


Format : MPEG-4
Format profile : Base Media
Codec ID : isom
File size : 914 MiB
Duration : 1h 40mn
Overall bit rate : 1 278 Kbps
Movie name : Speed.Dating.2010.LiMiTED.DvDRip.x264.Feel-Free


Video
Format settings, CABAC : Yes
Format settings, ReFrames : 4 frames
Codec ID : avc1
Codec ID/Info : Advanced Video Coding
Duration : 1h 40mn
Bit rate mode : Variable
Bit rate : 895 Kbps
Width : 720 pixels
Height : 384 pixels
Display aspect ratio : 1.875
Frame rate mode : Constant
Frame rate : 23.976 fps
Color space : YUV
Chroma subsampling : 4:2:0
Bit depth : 8 bits
Scan type : Progressive
Bits/(Pixel*Frame) : 0.135
Stream size : 636 MiB (70%)
Writing library : x264

Audio
ID : 2
Format : AAC
Format/Info : Advanced Audio Codec
Format version : Version 4
Format profile : LC
Codec ID : 40
Duration : 1h 39mn
Bit rate mode : Variable
Bit rate : 384 Kbps
Channel(s) : 6 channels
Channel positions : Front: L C R, Side: L R, LFE
Sampling rate : 48.0 KHz
Stream size : 274 MiB (30%)


Plot:
Love at first sight... Happens every night.
 
http://rapidhdd.com/images/270298vlcsnap-00006.png 
http://www.rapidhdd.com/images/983273vlcsnap-00005.png 
http://www.rapidhdd.com/images/760652vlcsnap-00002.png 
http://www.rapidhdd.com/images/877132vlcsnap-00004.png
 
http://www.videodetective.com/movies/trailers/speeddating-trailer/729718